<?xml version="1.0" encoding="UTF-8"?>
<!-- Created with Inkscape (http://www.inkscape.org/) -->
<svg width="210mm" height="297mm" version="1.1" viewBox="0 0 210 297" xmlns="http://www.w3.org/2000/svg">
 <defs>
  <filter id="filter27" x="-.04382" y="-.043959" width="1.1374" height="1.1379" color-interpolation-filters="sRGB">
   <feFlood flood-color="rgb(0,0,0)" flood-opacity=".49804" in="SourceGraphic" result="flood"/>
   <feGaussianBlur in="SourceGraphic" result="blur" stdDeviation="2.200000"/>
   <feOffset dx="6.000000" dy="6.000000" in="blur" result="offset"/>
   <feComposite in="flood" in2="offset" operator="in" result="comp1"/>
   <feComposite in="SourceGraphic" in2="comp1" result="comp2"/>
  </filter>
 </defs>
 <g>
  <g transform="translate(-5.0184 -9.4513)" filter="url(#filter27)">
   <path d="m110.34 150.11c-0.0629-8.1594 0.0982-8.999 1.7121-9.9056 0.8907-0.45396 1.4513-0.23471 3.308 1.3717 2.4203 2.2169 3.6516 2.431 6.1565 1.1262 2.449-1.3044 3.8255-3.9976 3.7988-7.4624-0.0277-3.5767-1.1634-5.9153-3.5777-7.3497-2.5828-1.5451-4.0345-1.3661-6.4762 0.88815-1.1654 1.071-2.2762 1.9737-2.4439 1.975-0.22355 0-0.84261-0.55245-1.5184-1.2178-1.0146-1.1099-1.1328-1.9474-1.1866-8.933l-0.0594-7.7122-7.2651 0.0562c-10.227 0.0787-12.529-1.2448-8.7023-5.1306 2.1072-2.1401 2.3759-3.5394 1.0716-5.9884-1.1345-2.1709-3.5501-3.7731-5.8981-3.8668-4.8642-0.24194-5.6449-0.01267-7.863 2.2403-2.9391 2.9848-2.9228 5.1084-0.0497 8.0484l2.14 2.1072-1.554 1.4093c-1.499 1.297-1.8897 1.3559-9.3784 1.4137l-7.7681 0.0596 0.05995 7.768c0.05817 7.5446 0.11614 7.8235 1.5262 9.4894 1.9174 2.2207 3.37 2.1537 5.5868-0.26663 0.9973-1.1254 2.2762-1.9736 3.0027-1.9793 1.7324-0.0127 5.056 3.3703 5.1832 5.3813 0.25932 4.6368-0.39755 6.4303-3.0121 8.0153-2.4473 1.5279-2.7831 1.4746-5.206-1.0776-1.1831-1.2205-2.3644-2.2173-2.6439-2.2151-0.27943 6e-3 -1.3348 0.84859-2.3884 1.9186l-1.8855 1.9147 0.06071 7.8798 0.06077 7.8799 8.3269-0.0643c7.5446-0.0583 8.4378-0.17705 9.7709-1.249 1.944-1.5798 1.8193-3.2556-0.54515-5.4729-1.0696-0.99776-1.9737-2.2762-1.9784-2.8909-4e-3 -0.61477 0.82276-2.0184 1.8756-3.2001 1.8291-1.9702 2.1077-2.0842 5.2931-2.1086 3.0178-0.0234 3.578 0.14004 5.0426 1.6378 2.7036 2.7177 2.7118 3.7795 0.1044 6.65-2.3829 2.6452-2.4366 2.925-0.3507 5.2562 1.1267 1.165 1.5742 1.2174 9.4541 1.1567l8.271-0.0637z" fill="#db2480"/>
   <path d="m83.953 143.37c-1.7884 0.72653-4.6945 4.3592-4.6945 5.8682 0 0.78242 0.8383 2.3472 1.956 3.5768 2.2355 2.459 2.3473 2.9061 0.95009 4.1357-0.83831 0.78242-2.3473 0.95007-8.9419 0.95007h-7.936v7.7124c0 6.0358-0.16766 7.936-0.89419 8.9419-1.1177 1.6766-2.2355 1.5648-3.9121-0.3912-2.5149-3.0179-5.7005-2.6267-8.8302 1.0618-1.2295 1.509-1.4531 2.2914-1.4531 5.3093 0 3.0179 0.22355 3.8003 1.509 5.3652 0.8383 0.95008 2.3473 2.1237 3.3532 2.5708 1.6207 0.61475 2.0678 0.61475 3.465-0.11184 0.8942-0.44709 2.1237-1.509 2.7944-2.3473l1.1736-1.5648 1.3972 1.5648c1.3413 1.509 1.3972 1.8443 1.3972 9.389v7.7683h7.9919c8.7184 0 10.004-0.39121 11.066-3.2974 0.50299-1.2854 0.39121-1.6207-1.0618-2.8502-2.7385-2.3473-3.1297-3.6327-1.8443-5.8123 1.4531-2.2914 3.2415-3.1297 6.8182-3.1297 2.5149 0 3.0738 0.22355 4.7504 1.9002 2.5149 2.5149 2.459 4.1915-0.0559 6.427-2.4032 2.0678-2.459 3.465-0.22355 5.3093 1.6766 1.3972 1.9002 1.4531 9.7803 1.4531h8.1036l-0.16766-8.439-0.16765-8.439-1.5648-1.3413c-2.0678-1.7884-2.8502-1.6766-4.9181 0.61475-2.3472 2.5149-4.1915 2.5708-6.4829 0.16767-1.7325-1.7884-2.1237-3.4091-1.9002-7.2653 0.0559-1.956 3.0738-4.9181 4.974-4.9181 0.95008 0 2.2355 0.72653 3.5768 2.0678 2.0678 2.0119 2.2355 2.0678 3.6885 1.2854 2.5149-1.4531 2.9061-2.962 2.9061-11.345v-7.6565h-7.8801c-4.3033 0-8.2713-0.22355-8.8302-0.55887-1.9002-1.006-1.8443-2.2355 0.22355-4.1356 1.4531-1.3972 1.956-2.3473 1.956-3.6886 0-2.1237-1.7325-4.7504-3.9121-5.8682-1.7325-0.89421-6.2594-1.0619-8.1595-0.27944z" fill="#0eadff"/>
   <path d="m118.33 158.02c8.1596-0.0173 8.9982 0.14891 9.8958 1.7676 0.44899 0.89325 0.22662 1.4526-1.3902 3.3003-2.2305 2.4078-2.4514 3.6378-1.1608 6.15 1.2906 2.4563 3.976 3.8479 7.441 3.8407 3.5768-8e-3 5.9217-1.1301 7.3697-3.5364 1.5595-2.574 1.3887-4.0268-0.85181-6.4812-1.0644-1.1713-1.9609-2.2872-1.9612-2.4549-1e-3 -0.22355 0.55714-0.83947 1.2264-1.5115 1.1156-1.0083 1.9537-1.1219 8.9396-1.1365l7.7124-0.0162-0.0158-7.2652c-0.0214-10.227 1.3152-12.522 5.1794-8.6734 2.1282 2.1192 3.526 2.3957 5.9822 1.1052 2.1773-1.1223 3.793-3.5289 3.8998-5.8763 0.26926-4.8627 0.044-5.6448-2.1961-7.8755-2.9683-2.9558-5.092-2.9514-8.048-0.0949l-2.1192 2.1281-1.4005-1.5619c-1.2885-1.5062-1.3452-1.8973-1.3609-9.3861l-0.016-7.7683-7.7682 0.0162c-7.5448 0.0158-7.8241 0.0721-9.4978 1.4729-2.2314 1.9049-2.1726 3.3578 0.23527 5.5882 1.1198 1.0036 1.9608 2.2873 1.9623 3.0138 3e-3 1.7324-3.3986 5.037-5.4103 5.1529-4.6382 0.23327-6.428-0.43363-7.9982-3.057-1.5141-2.4559-1.459-2.7913 1.1069-5.1998 1.2271-1.1763 2.2305-2.3519 2.2299-2.6314-2e-3 -0.27944-0.84113-1.3395-1.9052-2.3991l-1.9041-1.8962-15.76 0.0336 0.0176 8.3271c0.0158 7.5447 0.12974 8.4387 1.1941 9.7778 1.5689 1.9528 3.2453 1.8374 5.4759-0.51444 1.0037-1.064 2.2872-1.9609 2.902-1.9621 0.61476 0 2.0137 0.83405 3.1896 1.8935 1.9599 1.8402 2.0723 2.1194 2.0789 5.3049 6e-3 3.0179-0.16014 3.5771-1.6661 5.0333-2.7328 2.6883-3.7946 2.6906-6.6504 0.0672-2.6318-2.3977-2.9112-2.453-5.2542-0.38025-1.1713 1.1202-1.2262 1.5674-1.2097 9.4475l0.0173 8.2712z" fill="#d59c23"/>
   <path d="m96.343 184.22c0.72518 1.789 4.3556 4.6979 5.8646 4.699 0.78244 0 2.3479-0.83653 3.5782-1.9534 2.4607-2.2336 2.9079-2.345 4.1364-0.94696 0.78181 0.83887 0.94832 2.348 0.94335 8.9427l-6e-3 7.936 7.7124 6e-3c6.0358 6e-3 7.9358 0.17365 8.9413 0.90091 1.6758 1.119 1.5632 2.2366-0.39416 3.9118-3.0198 2.5127-2.631 5.6986 1.0552 8.831 1.508 1.2307 2.2903 1.4548 5.3082 1.4571 3.0179 0 3.8005-0.2207 5.3663-1.5049 0.95071-0.83758 2.1255-2.3456 2.5734-3.3513 0.61597-1.6203 0.6163-2.0674-0.10916-3.4651-0.44642-0.89448-1.5074-2.1249-2.3452-2.7961l-1.564-1.1748 1.5659-1.396c1.51-1.3402 1.8453-1.3958 9.3901-1.3901l7.7683 6e-3 6e-3 -7.9918c6e-3 -8.7184-0.38367-10.004-3.289-11.068-1.285-0.50393-1.6204-0.39249-2.851 1.0597-2.3493 2.7367-3.635 3.1269-5.8136 1.8399-2.2903-1.4548-3.1272-3.2438-3.1245-6.8206 2e-3 -2.5149 0.22586-3.0736 1.9037-4.749 2.5168-2.5131 4.1934-2.4559 6.427 0.0607 2.066 2.4047 3.4632 2.4616 5.3091 0.22753 1.3984-1.6756 1.4545-1.899 1.4604-9.7792l6e-3 -8.1037-8.4391 0.16141-8.4391 0.16129-1.3425 1.5638c-1.79 2.0665-1.6788 2.849 0.61104 4.9186 2.5132 2.3492 2.5676 4.1934 0.16279 6.4831-1.7897 1.7311-3.4107 2.1211-7.2668 1.8946-1.956-0.0574-4.9158-3.0776-4.9143-4.9776 5.5e-4 -0.95009 0.72822-2.235 2.0705-3.5752 2.0135-2.0663 2.0695-2.2339 1.2882-3.6876-1.4512-2.516-2.9598-2.9083-11.343-2.9147l-7.6566-6e-3 -6e-3 7.8801c-3e-3 4.3033-0.22977 8.2711-0.56553 8.8297-1.0074 1.8994-2.2369 1.8426-4.1355-0.22669-1.3961-1.4541-2.3458-1.9578-3.6871-1.9588-2.1237 0-4.7517 1.7289-5.8711 3.9077-0.89551 1.7318-1.0666 6.2585-0.28559 8.1592z" fill="#4f9f33"/>
  </g>
  <path d="m105.32 140.66c-0.0629-8.1594 0.0982-8.999 1.7121-9.9056 0.8907-0.45396 1.4513-0.23471 3.308 1.3717 2.4203 2.2169 3.6516 2.431 6.1565 1.1262 2.449-1.3044 3.8255-3.9976 3.7988-7.4624-0.0277-3.5767-1.1634-5.9153-3.5777-7.3497-2.5828-1.5451-4.0345-1.3661-6.4762 0.88815-1.1654 1.071-2.2762 1.9737-2.4439 1.975-0.22355 0-0.84261-0.55245-1.5184-1.2178-1.0146-1.1099-1.1328-1.9474-1.1866-8.933l-0.0594-7.7122-7.2651 0.0562c-10.227 0.0787-12.529-1.2448-8.7023-5.1306 2.1072-2.1401 2.3759-3.5394 1.0716-5.9884-1.1345-2.1709-3.5501-3.7731-5.8981-3.8668-4.8642-0.24194-5.6449-0.01267-7.863 2.2403-2.9391 2.9848-2.9228 5.1084-0.0497 8.0484l2.14 2.1072-1.554 1.4093c-1.499 1.297-1.8897 1.3559-9.3784 1.4137l-7.7681 0.0596 0.05995 7.768c0.05817 7.5446 0.11614 7.8235 1.5262 9.4894 1.9174 2.2207 3.37 2.1537 5.5868-0.26663 0.9973-1.1254 2.2762-1.9736 3.0027-1.9793 1.7324-0.0127 5.056 3.3703 5.1832 5.3813 0.25932 4.6368-0.39755 6.4303-3.0121 8.0153-2.4473 1.5279-2.7831 1.4746-5.206-1.0776-1.1831-1.2205-2.3644-2.2173-2.6439-2.2151-0.27943 6e-3 -1.3348 0.84859-2.3884 1.9186l-1.8855 1.9147 0.06071 7.8798 0.06077 7.8799 8.3269-0.0643c7.5446-0.0583 8.4378-0.17705 9.7709-1.249 1.944-1.5798 1.8193-3.2556-0.54515-5.4729-1.0696-0.99776-1.9737-2.2762-1.9784-2.8909-4e-3 -0.61477 0.82276-2.0184 1.8756-3.2001 1.8291-1.9702 2.1077-2.0842 5.2931-2.1086 3.0178-0.0234 3.578 0.14004 5.0426 1.6378 2.7036 2.7177 2.7118 3.7795 0.1044 6.65-2.3829 2.6452-2.4366 2.925-0.3507 5.2562 1.1267 1.165 1.5742 1.2174 9.4541 1.1567l8.271-0.0637z" fill="#db2480"/>
  <path d="m78.935 133.92c-1.7884 0.72653-4.6945 4.3592-4.6945 5.8682 0 0.78242 0.8383 2.3472 1.956 3.5768 2.2355 2.459 2.3473 2.9061 0.95009 4.1357-0.83831 0.78242-2.3473 0.95007-8.9419 0.95007h-7.936v7.7124c0 6.0358-0.16766 7.936-0.89419 8.9419-1.1177 1.6766-2.2355 1.5648-3.9121-0.3912-2.5149-3.0179-5.7005-2.6267-8.8302 1.0618-1.2295 1.509-1.4531 2.2914-1.4531 5.3093 0 3.0179 0.22355 3.8003 1.509 5.3652 0.8383 0.95008 2.3473 2.1237 3.3532 2.5708 1.6207 0.61475 2.0678 0.61475 3.465-0.11184 0.8942-0.44709 2.1237-1.509 2.7944-2.3473l1.1736-1.5648 1.3972 1.5648c1.3413 1.509 1.3972 1.8443 1.3972 9.389v7.7683h7.9919c8.7184 0 10.004-0.39121 11.066-3.2974 0.50299-1.2854 0.39121-1.6207-1.0618-2.8502-2.7385-2.3473-3.1297-3.6327-1.8443-5.8123 1.4531-2.2914 3.2415-3.1297 6.8182-3.1297 2.5149 0 3.0738 0.22355 4.7504 1.9002 2.5149 2.5149 2.459 4.1915-0.0559 6.427-2.4032 2.0678-2.459 3.465-0.22355 5.3093 1.6766 1.3972 1.9002 1.4531 9.7803 1.4531h8.1036l-0.16766-8.439-0.16765-8.439-1.5648-1.3413c-2.0678-1.7884-2.8502-1.6766-4.9181 0.61475-2.3472 2.5149-4.1915 2.5708-6.4829 0.16767-1.7325-1.7884-2.1237-3.4091-1.9002-7.2653 0.0559-1.956 3.0738-4.9181 4.974-4.9181 0.95008 0 2.2355 0.72653 3.5768 2.0678 2.0678 2.0119 2.2355 2.0678 3.6885 1.2854 2.5149-1.4531 2.9061-2.962 2.9061-11.345v-7.6565h-7.8801c-4.3033 0-8.2713-0.22355-8.8302-0.55887-1.9002-1.006-1.8443-2.2355 0.22355-4.1356 1.4531-1.3972 1.956-2.3473 1.956-3.6886 0-2.1237-1.7325-4.7504-3.9121-5.8682-1.7325-0.89421-6.2594-1.0619-8.1595-0.27944z" fill="#0eadff"/>
  <path d="m113.31 148.56c8.1596-0.0173 8.9982 0.14891 9.8958 1.7676 0.44899 0.89325 0.22662 1.4526-1.3902 3.3003-2.2305 2.4078-2.4514 3.6378-1.1608 6.15 1.2906 2.4563 3.976 3.8479 7.441 3.8407 3.5768-8e-3 5.9217-1.1301 7.3697-3.5364 1.5595-2.574 1.3887-4.0268-0.85181-6.4812-1.0644-1.1713-1.9609-2.2872-1.9612-2.4549-1e-3 -0.22355 0.55714-0.83947 1.2264-1.5115 1.1156-1.0083 1.9537-1.1219 8.9396-1.1365l7.7124-0.0162-0.0158-7.2652c-0.0214-10.227 1.3152-12.522 5.1794-8.6734 2.1282 2.1192 3.526 2.3957 5.9822 1.1052 2.1773-1.1223 3.793-3.5289 3.8998-5.8763 0.26926-4.8627 0.044-5.6448-2.1961-7.8755-2.9683-2.9558-5.092-2.9514-8.048-0.0949l-2.1192 2.1281-1.4005-1.5619c-1.2885-1.5062-1.3452-1.8973-1.3609-9.3861l-0.016-7.7683-7.7682 0.0162c-7.5448 0.0158-7.8241 0.0721-9.4978 1.4729-2.2314 1.9049-2.1726 3.3578 0.23527 5.5882 1.1198 1.0036 1.9608 2.2873 1.9623 3.0138 3e-3 1.7324-3.3986 5.037-5.4103 5.1529-4.6382 0.23327-6.428-0.43363-7.9982-3.057-1.5141-2.4559-1.459-2.7913 1.1069-5.1998 1.2271-1.1763 2.2305-2.3519 2.2299-2.6314-2e-3 -0.27944-0.84113-1.3395-1.9052-2.3991l-1.9041-1.8962-15.76 0.0336 0.0176 8.3271c0.0158 7.5447 0.12974 8.4387 1.1941 9.7778 1.5689 1.9528 3.2453 1.8374 5.4759-0.51444 1.0037-1.064 2.2872-1.9609 2.902-1.9621 0.61476 0 2.0137 0.83405 3.1896 1.8935 1.9599 1.8402 2.0723 2.1194 2.0789 5.3049 6e-3 3.0179-0.16014 3.5771-1.6661 5.0333-2.7328 2.6883-3.7946 2.6906-6.6504 0.0672-2.6318-2.3977-2.9112-2.453-5.2542-0.38025-1.1713 1.1202-1.2262 1.5674-1.2097 9.4475l0.0173 8.2712z" fill="#d59c23"/>
  <path d="m91.325 174.77c0.72518 1.789 4.3556 4.6979 5.8646 4.699 0.78244 0 2.3479-0.83653 3.5782-1.9534 2.4607-2.2336 2.9079-2.345 4.1364-0.94696 0.78181 0.83887 0.94832 2.348 0.94335 8.9427l-6e-3 7.936 7.7124 6e-3c6.0358 6e-3 7.9358 0.17365 8.9413 0.90091 1.6758 1.119 1.5632 2.2366-0.39416 3.9118-3.0198 2.5127-2.631 5.6986 1.0552 8.831 1.508 1.2307 2.2903 1.4548 5.3082 1.4571 3.0179 0 3.8005-0.2207 5.3663-1.5049 0.95071-0.83758 2.1255-2.3456 2.5734-3.3513 0.61597-1.6203 0.6163-2.0674-0.10916-3.4651-0.44642-0.89448-1.5074-2.1249-2.3452-2.7961l-1.564-1.1748 1.5659-1.396c1.51-1.3402 1.8453-1.3958 9.3901-1.3901l7.7683 6e-3 6e-3 -7.9918c6e-3 -8.7184-0.38367-10.004-3.289-11.068-1.285-0.50393-1.6204-0.39249-2.851 1.0597-2.3493 2.7367-3.635 3.1269-5.8136 1.8399-2.2903-1.4548-3.1272-3.2438-3.1245-6.8206 2e-3 -2.5149 0.22586-3.0736 1.9037-4.749 2.5168-2.5131 4.1934-2.4559 6.427 0.0607 2.066 2.4047 3.4632 2.4616 5.3091 0.22753 1.3984-1.6756 1.4545-1.899 1.4604-9.7792l6e-3 -8.1037-8.4391 0.16141-8.4391 0.16129-1.3425 1.5638c-1.79 2.0665-1.6788 2.849 0.61104 4.9186 2.5132 2.3492 2.5676 4.1934 0.16279 6.4831-1.7897 1.7311-3.4107 2.1211-7.2668 1.8946-1.956-0.0574-4.9158-3.0776-4.9143-4.9776 5.5e-4 -0.95009 0.72822-2.235 2.0705-3.5752 2.0135-2.0663 2.0695-2.2339 1.2882-3.6876-1.4512-2.516-2.9598-2.9083-11.343-2.9147l-7.6566-6e-3 -6e-3 7.8801c-3e-3 4.3033-0.22977 8.2711-0.56553 8.8297-1.0074 1.8994-2.2369 1.8426-4.1355-0.22669-1.3961-1.4541-2.3458-1.9578-3.6871-1.9588-2.1237 0-4.7517 1.7289-5.8711 3.9077-0.89551 1.7318-1.0666 6.2585-0.28559 8.1592z" fill="#4f9f33"/>
 </g>
</svg>
